{
  "accessors": [
    {
      "bufferView": 2,
      "componentType": 5126,
      "count": 51827,
      "max": [
        28.75,
        35.0,
        14.9992094039917
      ],
      "min": [
        -15.0,
        0.0,
        -14.9992094039917
      ],
      "type": "VEC3"
    },
    {
      "bufferView": 2,
      "byteOffset": 621924,
      "componentType": 5126,
      "count": 51827,
      "max": [
        1.0,
        1.0,
        1.0
      ],
      "min": [
        -1.0,
        -1.0,
        -1.0
      ],
      "type": "VEC3"
    },
    {
      "bufferView": 1,
      "componentType": 5126,
      "count": 51827,
      "max": [
        3.4749999046325684,
        4.743188858032227
      ],
      "min": [
        -3.4749999046325684,
        -4.743188858032227
      ],
      "type": "VEC2"
    },
    {
      "bufferView": 0,
      "componentType": 5125,
      "count": 52674,
      "type": "SCALAR"
    }
  ],
  "asset": {
    "extras": {
      "author": "roabon (https://sketchfab.com/roabon)",
      "license": "SKETCHFAB Standard (https://sketchfab.com/licenses)",
      "source": "https://sketchfab.com/3d-models/mug-63025070788b4cffb4ad93b6b19b7fb0",
      "title": "Mug"
    },
    "generator": "Sketchfab-16.14.0",
    "version": "2.0"
  },
  "bufferViews": [
    {
      "buffer": 0,
      "byteLength": 210696,
      "name": "floatBufferViews",
      "target": 34963
    },
    {
      "buffer": 0,
      "byteLength": 414616,
      "byteOffset": 210696,
      "byteStride": 8,
      "name": "floatBufferViews",
      "target": 34962
    },
    {
      "buffer": 0,
      "byteLength": 1243848,
      "byteOffset": 625312,
      "byteStride": 12,
      "name": "floatBufferViews",
      "target": 34962
    }
  ],
  "buffers": [
    {
      "byteLength": 1869160,
      "uri": "scene.bin"
    }
  ],
  "materials": [
    {
      "doubleSided": true,
      "name": "191191191",
      "pbrMetallicRoughness": {
        "baseColorFactor": [
          0.74902,
          0.74902,
          0.74902,
          1.0
        ],
        "metallicFactor": 0.0,
        "roughnessFactor": 0.8640285054472803
      }
    }
  ],
  "meshes": [
    {
      "name": "Mug_again_191,191,191_0",
      "primitives": [
        {
          "attributes": {
            "NORMAL": 1,
            "POSITION": 0,
            "TEXCOORD_0": 2
          },
          "indices": 3,
          "material": 0,
          "mode": 4
        }
      ]
    }
  ],
  "nodes": [
    {
      "children": [
        1
      ],
      "matrix": [
        1.0,
        0.0,
        0.0,
        0.0,
        0.0,
        2.220446049250313e-16,
        -1.0,
        0.0,
        0.0,
        1.0,
        2.220446049250313e-16,
        0.0,
        0.0,
        0.0,
        0.0,
        1.0
      ],
      "name": "Sketchfab_model"
    },
    {
      "children": [
        2
      ],
      "matrix": [
        0.009999999776482582,
        0.0,
        0.0,
        0.0,
        0.0,
        0.0,
        0.009999999776482582,
        0.0,
        0.0,
        -0.009999999776482582,
        0.0,
        0.0,
        0.0,
        0.0,
        0.0,
        1.0
      ],
      "name": "Mug.fbx"
    },
    {
      "children": [
        3
      ],
      "name": "RootNode"
    },
    {
      "children": [
        4
      ],
      "matrix": [
        100.0,
        0.0,
        0.0,
        0.0,
        0.0,
        99.99999999999972,
        -7.5497901264043296e-06,
        0.0,
        0.0,
        7.5497901264043296e-06,
        99.99999999999972,
        0.0,
        0.0,
        0.0,
        0.0,
        1.0
      ],
      "name": "Mug_again"
    },
    {
      "mesh": 0,
      "name": "Mug_again_191,191,191_0"
    }
  ],
  "scene": 0,
  "scenes": [
    {
      "name": "Sketchfab_Scene",
      "nodes": [
        0
      ]
    }
  ]
}
